<svg width="153" height="196" viewBox="0 0 153 196" fill="none" xmlns="http://www.w3.org/2000/svg">
<path d="M74 110V174" stroke="#DD6B20" stroke-width="43" stroke-linecap="round" stroke-linejoin="round"/>
<path d="M127.667 105.007C141.389 98.9966 149.023 84.1931 145.961 69.5284C142.9 54.8638 129.981 44.3509 115 44.3332H107.02C101.508 22.9865 82.8236 7.65474 60.8114 6.41522C38.7992 5.1757 18.5121 18.3129 10.6379 38.9059C2.76367 59.4989 9.11001 82.8201 26.3335 96.5832" stroke="#48BB78" stroke-width="12.6667" stroke-linecap="round" stroke-linejoin="round"/>
<path fill-rule="evenodd" clip-rule="evenodd" d="M69.7398 46.0171C60.4275 46.4379 53 54.552 53 64.5C53 64.6201 53.0011 64.7399 53.0032 64.8595C45.6629 63.818 40 57.1144 40 49C40 40.1634 46.7157 33 55 33C62.3286 33 68.4297 38.6061 69.7398 46.0171Z" fill="#48BB78"/>
<path fill-rule="evenodd" clip-rule="evenodd" d="M103.997 87.0403C104.684 77.7438 97.5094 69.4057 87.6317 68.2248C87.5124 68.2106 87.3933 68.1974 87.2744 68.1854C89.1798 61.0206 96.5082 56.1934 104.565 57.1566C113.339 58.2056 119.655 65.7242 118.672 73.9499C117.802 81.2267 111.511 86.6192 103.997 87.0403Z" fill="#48BB78"/>
</svg>
